<svg width="48" height="48" viewBox="0 0 48 48" fill="none" xmlns="http://www.w3.org/2000/svg">
<path d="M38.25 25.55H7.5C7.06667 25.55 6.70833 25.4083 6.425 25.125C6.14167 24.8417 6 24.4833 6 24.05C6 23.6167 6.14167 23.2583 6.425 22.975C6.70833 22.6917 7.06667 22.55 7.5 22.55H38.3L34 18.25C33.7333 17.9833 33.6 17.65 33.6 17.25C33.6 16.85 33.75 16.5 34.05 16.2C34.35 15.9 34.7 15.75 35.1 15.75C35.5 15.75 35.85 15.9 36.15 16.2L42.95 23C43.1167 23.1667 43.2333 23.3333 43.3 23.5C43.3667 23.6667 43.4 23.85 43.4 24.05C43.4 24.25 43.3667 24.4333 43.3 24.6C43.2333 24.7667 43.1167 24.9333 42.95 25.1L36.15 31.9C35.8167 32.2333 35.4583 32.3917 35.075 32.375C34.6917 32.3583 34.35 32.2 34.05 31.9C33.75 31.6 33.6 31.2417 33.6 30.825C33.6 30.4083 33.7333 30.0667 34 29.8L38.25 25.55Z" fill="#9013DD"/>
</svg>
