<svg width="48" height="48" viewBox="0 0 48 48" fill="none" xmlns="http://www.w3.org/2000/svg">
<path d="M21.8 4.19995C12.6 5.19995 5.20002 12.6 4.20002 21.6C3.20002 31 8.60002 39.4 16.8 42.6C17.4 42.8 18 42.4 18 41.6V38.4C18 38.4 17.2 38.6 16.2 38.6C13.4 38.6 12.2 36.2 12 34.8C11.8 34 11.4 33.4 10.8 32.8C10.2 32.6 10 32.6 10 32.4C10 32 10.6 32 10.8 32C12 32 13 33.4 13.4 34C14.4 35.6 15.6 36 16.2 36C17 36 17.6 35.8 18 35.6C18.2 34.2 18.8 32.8 20 32C15.4 31 12 28.4 12 24C12 21.8 13 19.6 14.4 18C14.2 17.6 14 16.6 14 15.2C14 14.4 14 13.2 14.6 12C14.6 12 17.4 12 20.2 14.6C21.2 14.2 22.6 14 24 14C25.4 14 26.8 14.2 28 14.6C30.6 12 33.6 12 33.6 12C34 13.2 34 14.4 34 15.2C34 16.8 33.8 17.6 33.6 18C35 19.6 36 21.6 36 24C36 28.4 32.6 31 28 32C29.2 33 30 34.8 30 36.6V41.8C30 42.4 30.6 43 31.4 42.8C38.8 39.8 44 32.6 44 24.2C44 12.2 33.8 2.79995 21.8 4.19995Z" fill="#EEEEEE"/>
</svg>
