<svg width="196" height="22" viewBox="0 0 196 22" fill="none" xmlns="http://www.w3.org/2000/svg">
<path d="M0.769886 0.636363H6.07955L11.6875 14.3182H11.9261L17.5341 0.636363H22.8438V21H18.6676V7.74574H18.4986L13.2287 20.9006H10.3849L5.11506 7.69602H4.94602V21H0.769886V0.636363ZM30.6665 21.2884C29.6921 21.2884 28.8237 21.1193 28.0614 20.7812C27.2991 20.4366 26.6959 19.9295 26.2518 19.2599C25.8143 18.5838 25.5955 17.742 25.5955 16.7344C25.5955 15.8859 25.7513 15.1733 26.0629 14.5966C26.3744 14.0199 26.7987 13.5559 27.3356 13.2045C27.8725 12.8532 28.4824 12.5881 29.1651 12.4091C29.8545 12.2301 30.5771 12.1042 31.3327 12.0312C32.221 11.9384 32.9369 11.8523 33.4805 11.7727C34.024 11.6866 34.4184 11.5606 34.6637 11.3949C34.909 11.2292 35.0316 10.9839 35.0316 10.6591V10.5994C35.0316 9.9697 34.8327 9.48248 34.435 9.13778C34.0439 8.79309 33.4871 8.62074 32.7646 8.62074C32.0022 8.62074 31.3957 8.78977 30.945 9.12784C30.4942 9.45928 30.1959 9.87689 30.0501 10.3807L26.1325 10.0625C26.3313 9.13447 26.7224 8.33239 27.3058 7.65625C27.8891 6.97348 28.6415 6.44981 29.5629 6.08523C30.4909 5.71401 31.5647 5.52841 32.7844 5.52841C33.6329 5.52841 34.445 5.62784 35.2205 5.8267C36.0027 6.02557 36.6954 6.33381 37.2987 6.75142C37.9085 7.16903 38.3891 7.70597 38.7404 8.36222C39.0917 9.01184 39.2674 9.79072 39.2674 10.6989V21H35.2504V18.8821H35.131C34.8858 19.3594 34.5576 19.7803 34.1467 20.1449C33.7357 20.5028 33.2418 20.7846 32.6651 20.9901C32.0884 21.1889 31.4222 21.2884 30.6665 21.2884ZM31.8796 18.3651C32.5027 18.3651 33.0529 18.2424 33.5302 17.9972C34.0075 17.7453 34.382 17.4072 34.6538 16.983C34.9255 16.5587 35.0614 16.0781 35.0614 15.5412V13.9205C34.9289 14.0066 34.7466 14.0862 34.5146 14.1591C34.2892 14.2254 34.034 14.2884 33.7489 14.348C33.4639 14.401 33.1789 14.4508 32.8938 14.4972C32.6088 14.5369 32.3503 14.5734 32.1183 14.6065C31.6211 14.6795 31.1869 14.7955 30.8157 14.9545C30.4445 15.1136 30.1561 15.3291 29.9506 15.6009C29.7451 15.866 29.6424 16.1974 29.6424 16.5952C29.6424 17.1719 29.8512 17.6127 30.2688 17.9176C30.6931 18.2159 31.23 18.3651 31.8796 18.3651ZM42.5536 21V5.72727H46.6602V8.39205H46.8192C47.0977 7.44413 47.565 6.72822 48.2212 6.24432C48.8775 5.75379 49.6332 5.50852 50.4883 5.50852C50.7004 5.50852 50.9291 5.52178 51.1744 5.54829C51.4196 5.57481 51.6351 5.61127 51.8207 5.65767V9.41619C51.6218 9.35653 51.3467 9.3035 50.9954 9.2571C50.6441 9.2107 50.3226 9.1875 50.0309 9.1875C49.4078 9.1875 48.851 9.32339 48.3604 9.59517C47.8765 9.86032 47.4921 10.2315 47.207 10.7088C46.9286 11.1861 46.7894 11.7363 46.7894 12.3594V21H42.5536ZM60.2003 21.2983C58.6359 21.2983 57.2902 20.9669 56.1634 20.304C55.0431 19.6345 54.1813 18.7064 53.5781 17.5199C52.9815 16.3333 52.6832 14.9678 52.6832 13.4233C52.6832 11.8589 52.9848 10.4867 53.5881 9.30682C54.1979 8.12026 55.063 7.19555 56.1832 6.53267C57.3035 5.86316 58.6359 5.52841 60.1804 5.52841C61.5128 5.52841 62.6795 5.77036 63.6804 6.25426C64.6813 6.73816 65.4735 7.41761 66.0568 8.29261C66.6402 9.16761 66.9616 10.1951 67.0213 11.375H63.0241C62.9115 10.6127 62.6132 9.99953 62.1293 9.53551C61.652 9.06487 61.0256 8.82955 60.25 8.82955C59.5938 8.82955 59.0204 9.00852 58.5298 9.36648C58.0459 9.7178 57.6681 10.2315 57.3963 10.9077C57.1245 11.5838 56.9886 12.4025 56.9886 13.3636C56.9886 14.3381 57.1212 15.1667 57.3864 15.8494C57.6581 16.5322 58.0393 17.0526 58.5298 17.4105C59.0204 17.7685 59.5938 17.9474 60.25 17.9474C60.7339 17.9474 61.1681 17.848 61.5526 17.6491C61.9437 17.4503 62.2652 17.1619 62.517 16.7841C62.7756 16.3996 62.9446 15.9389 63.0241 15.402H67.0213C66.955 16.5687 66.6368 17.5961 66.0668 18.4844C65.5033 19.366 64.7244 20.0554 63.7301 20.5526C62.7358 21.0497 61.5592 21.2983 60.2003 21.2983ZM76.6935 21.2983C75.1225 21.2983 73.7702 20.9801 72.6367 20.3438C71.5098 19.7008 70.6415 18.7926 70.0316 17.6193C69.4218 16.4394 69.1168 15.044 69.1168 13.4332C69.1168 11.8622 69.4218 10.4834 70.0316 9.29688C70.6415 8.11032 71.4999 7.18561 72.6069 6.52273C73.7205 5.85985 75.0264 5.52841 76.5245 5.52841C77.5321 5.52841 78.4701 5.69081 79.3384 6.01562C80.2134 6.33381 80.9757 6.81439 81.6254 7.45739C82.2816 8.10038 82.792 8.90909 83.1566 9.88352C83.5212 10.8513 83.7035 11.9848 83.7035 13.2841V14.4474H70.8072V11.8224H79.7163C79.7163 11.2126 79.5837 10.6723 79.3185 10.2017C79.0534 9.73106 78.6855 9.36316 78.2148 9.09801C77.7508 8.82623 77.2106 8.69034 76.5941 8.69034C75.9511 8.69034 75.381 8.83949 74.8839 9.13778C74.3933 9.42945 74.0089 9.82386 73.7305 10.321C73.4521 10.8116 73.3095 11.3584 73.3029 11.9616V14.4574C73.3029 15.2131 73.4421 15.866 73.7205 16.4162C74.0056 16.9664 74.4066 17.3906 74.9237 17.6889C75.4407 17.9872 76.0539 18.1364 76.7631 18.1364C77.2338 18.1364 77.6647 18.0701 78.0558 17.9375C78.4469 17.8049 78.7816 17.6061 79.06 17.3409C79.3384 17.0758 79.5505 16.7509 79.6964 16.3665L83.614 16.625C83.4151 17.5663 83.0075 18.3883 82.391 19.0909C81.7811 19.7869 80.9923 20.3305 80.0245 20.7216C79.0633 21.1061 77.953 21.2983 76.6935 21.2983ZM90.7035 0.636363V21H86.4677V0.636363H90.7035ZM100.997 21.2983C99.4527 21.2983 98.117 20.9702 96.9901 20.3139C95.8698 19.651 95.0047 18.7296 94.3949 17.5497C93.785 16.3632 93.4801 14.9877 93.4801 13.4233C93.4801 11.8456 93.785 10.4669 94.3949 9.28693C95.0047 8.10038 95.8698 7.17898 96.9901 6.52273C98.117 5.85985 99.4527 5.52841 100.997 5.52841C102.542 5.52841 103.874 5.85985 104.994 6.52273C106.121 7.17898 106.99 8.10038 107.599 9.28693C108.209 10.4669 108.514 11.8456 108.514 13.4233C108.514 14.9877 108.209 16.3632 107.599 17.5497C106.99 18.7296 106.121 19.651 104.994 20.3139C103.874 20.9702 102.542 21.2983 100.997 21.2983ZM101.017 18.017C101.72 18.017 102.306 17.8182 102.777 17.4205C103.248 17.0161 103.602 16.4659 103.841 15.7699C104.086 15.0739 104.209 14.2817 104.209 13.3935C104.209 12.5052 104.086 11.7131 103.841 11.017C103.602 10.321 103.248 9.77083 102.777 9.36648C102.306 8.96212 101.72 8.75994 101.017 8.75994C100.308 8.75994 99.7112 8.96212 99.2273 9.36648C98.75 9.77083 98.3887 10.321 98.1435 11.017C97.9048 11.7131 97.7855 12.5052 97.7855 13.3935C97.7855 14.2817 97.9048 15.0739 98.1435 15.7699C98.3887 16.4659 98.75 17.0161 99.2273 17.4205C99.7112 17.8182 100.308 18.017 101.017 18.017ZM128.875 6.4929C128.796 5.69081 128.454 5.06771 127.851 4.62358C127.248 4.17945 126.429 3.95739 125.395 3.95739C124.693 3.95739 124.099 4.05682 123.615 4.25568C123.132 4.44792 122.76 4.71638 122.502 5.06108C122.25 5.40578 122.124 5.79688 122.124 6.23438C122.111 6.59896 122.187 6.91714 122.353 7.18892C122.525 7.4607 122.76 7.69602 123.059 7.89489C123.357 8.08712 123.702 8.25615 124.093 8.40199C124.484 8.54119 124.901 8.66051 125.346 8.75994L127.175 9.19744C128.063 9.39631 128.879 9.66146 129.621 9.9929C130.364 10.3243 131.007 10.732 131.55 11.2159C132.094 11.6998 132.515 12.2699 132.813 12.9261C133.118 13.5824 133.274 14.3348 133.28 15.1832C133.274 16.4295 132.955 17.5099 132.326 18.4247C131.703 19.3329 130.801 20.0388 129.621 20.5426C128.448 21.0398 127.033 21.2884 125.375 21.2884C123.731 21.2884 122.3 21.0365 121.08 20.5327C119.867 20.0289 118.919 19.2831 118.236 18.2955C117.56 17.3011 117.205 16.0715 117.172 14.6065H121.338C121.385 15.2893 121.58 15.8594 121.925 16.3168C122.276 16.7675 122.744 17.1089 123.327 17.3409C123.917 17.5663 124.583 17.679 125.326 17.679C126.055 17.679 126.688 17.5729 127.225 17.3608C127.768 17.1487 128.189 16.8537 128.488 16.4759C128.786 16.098 128.935 15.6638 128.935 15.1733C128.935 14.7159 128.799 14.3314 128.527 14.0199C128.262 13.7083 127.871 13.4432 127.354 13.2244C126.844 13.0057 126.217 12.8068 125.475 12.6278L123.257 12.071C121.541 11.6534 120.185 11.0005 119.191 10.1122C118.196 9.22396 117.703 8.02746 117.709 6.52273C117.703 5.28977 118.031 4.21259 118.694 3.29119C119.363 2.36979 120.281 1.65057 121.448 1.13352C122.614 0.616477 123.94 0.357954 125.425 0.357954C126.936 0.357954 128.256 0.616477 129.382 1.13352C130.516 1.65057 131.398 2.36979 132.027 3.29119C132.657 4.21259 132.982 5.27983 133.002 6.4929H128.875ZM142.997 21.2983C141.453 21.2983 140.117 20.9702 138.99 20.3139C137.87 19.651 137.005 18.7296 136.395 17.5497C135.785 16.3632 135.48 14.9877 135.48 13.4233C135.48 11.8456 135.785 10.4669 136.395 9.28693C137.005 8.10038 137.87 7.17898 138.99 6.52273C140.117 5.85985 141.453 5.52841 142.997 5.52841C144.542 5.52841 145.874 5.85985 146.994 6.52273C148.121 7.17898 148.99 8.10038 149.599 9.28693C150.209 10.4669 150.514 11.8456 150.514 13.4233C150.514 14.9877 150.209 16.3632 149.599 17.5497C148.99 18.7296 148.121 19.651 146.994 20.3139C145.874 20.9702 144.542 21.2983 142.997 21.2983ZM143.017 18.017C143.72 18.017 144.306 17.8182 144.777 17.4205C145.248 17.0161 145.602 16.4659 145.841 15.7699C146.086 15.0739 146.209 14.2817 146.209 13.3935C146.209 12.5052 146.086 11.7131 145.841 11.017C145.602 10.321 145.248 9.77083 144.777 9.36648C144.306 8.96212 143.72 8.75994 143.017 8.75994C142.308 8.75994 141.711 8.96212 141.227 9.36648C140.75 9.77083 140.389 10.321 140.143 11.017C139.905 11.7131 139.786 12.5052 139.786 13.3935C139.786 14.2817 139.905 15.0739 140.143 15.7699C140.389 16.4659 140.75 17.0161 141.227 17.4205C141.711 17.8182 142.308 18.017 143.017 18.017ZM163.062 14.4972V5.72727H167.298V21H163.232V18.2259H163.072C162.728 19.1207 162.154 19.84 161.352 20.3835C160.557 20.9271 159.586 21.1989 158.439 21.1989C157.418 21.1989 156.52 20.9669 155.744 20.5028C154.969 20.0388 154.362 19.3793 153.925 18.5241C153.494 17.669 153.275 16.6449 153.268 15.4517V5.72727H157.504V14.696C157.511 15.5975 157.753 16.3101 158.23 16.8338C158.707 17.3575 159.347 17.6193 160.149 17.6193C160.66 17.6193 161.137 17.5033 161.581 17.2713C162.025 17.0327 162.383 16.6813 162.655 16.2173C162.933 15.7533 163.069 15.1799 163.062 14.4972ZM178.81 5.72727V8.90909H169.613V5.72727H178.81ZM171.701 2.06818H175.936V16.3068C175.936 16.6979 175.996 17.0028 176.115 17.2216C176.235 17.4337 176.4 17.5829 176.613 17.669C176.831 17.7552 177.083 17.7983 177.368 17.7983C177.567 17.7983 177.766 17.7817 177.965 17.7486C178.164 17.7088 178.316 17.679 178.422 17.6591L179.088 20.8111C178.876 20.8774 178.578 20.9536 178.194 21.0398C177.809 21.1326 177.342 21.1889 176.792 21.2088C175.771 21.2486 174.876 21.1127 174.107 20.8011C173.345 20.4896 172.751 20.0057 172.327 19.3494C171.903 18.6932 171.694 17.8646 171.701 16.8636V2.06818ZM188.306 21.2983C186.761 21.2983 185.426 20.9702 184.299 20.3139C183.178 19.651 182.313 18.7296 181.703 17.5497C181.094 16.3632 180.789 14.9877 180.789 13.4233C180.789 11.8456 181.094 10.4669 181.703 9.28693C182.313 8.10038 183.178 7.17898 184.299 6.52273C185.426 5.85985 186.761 5.52841 188.306 5.52841C189.85 5.52841 191.183 5.85985 192.303 6.52273C193.43 7.17898 194.298 8.10038 194.908 9.28693C195.518 10.4669 195.823 11.8456 195.823 13.4233C195.823 14.9877 195.518 16.3632 194.908 17.5497C194.298 18.7296 193.43 19.651 192.303 20.3139C191.183 20.9702 189.85 21.2983 188.306 21.2983ZM188.326 18.017C189.028 18.017 189.615 17.8182 190.086 17.4205C190.556 17.0161 190.911 16.4659 191.15 15.7699C191.395 15.0739 191.517 14.2817 191.517 13.3935C191.517 12.5052 191.395 11.7131 191.15 11.017C190.911 10.321 190.556 9.77083 190.086 9.36648C189.615 8.96212 189.028 8.75994 188.326 8.75994C187.616 8.75994 187.02 8.96212 186.536 9.36648C186.059 9.77083 185.697 10.321 185.452 11.017C185.213 11.7131 185.094 12.5052 185.094 13.3935C185.094 14.2817 185.213 15.0739 185.452 15.7699C185.697 16.4659 186.059 17.0161 186.536 17.4205C187.02 17.8182 187.616 18.017 188.326 18.017Z" fill="#121212"/>
</svg>
