<svg width="434" height="466" viewBox="0 0 434 466" fill="none" xmlns="http://www.w3.org/2000/svg">
<circle cx="252" cy="56" r="56" fill="#EEEEEE"/>
<path d="M253.195 85.571C248.663 85.571 244.629 84.9531 241.092 83.7173C237.555 82.4957 234.565 80.6989 232.122 78.3267C229.679 75.9688 227.818 73.0852 226.54 69.6761C225.261 66.267 224.622 62.3892 224.622 58.0426C224.622 53.7528 225.261 49.8608 226.54 46.3665C227.832 42.8722 229.714 39.875 232.186 37.375C234.658 34.8608 237.676 32.929 241.241 31.5795C244.821 30.2301 248.898 29.5554 253.472 29.5554C257.705 29.5554 261.483 30.1733 264.807 31.4091C268.145 32.6449 270.972 34.4062 273.287 36.6932C275.616 38.9659 277.385 41.6719 278.592 44.8111C279.814 47.9361 280.418 51.3949 280.403 55.1875C280.418 57.8011 280.19 60.2017 279.722 62.3892C279.253 64.5767 278.514 66.4872 277.506 68.1207C276.511 69.7401 275.205 71.0256 273.585 71.9773C271.966 72.9148 270.006 73.4474 267.705 73.5753C266.057 73.7031 264.722 73.5824 263.699 73.2131C262.676 72.8437 261.895 72.2969 261.355 71.5724C260.83 70.8338 260.489 69.9744 260.332 68.9943H260.077C259.736 69.8466 259.068 70.6207 258.074 71.3168C257.08 71.9986 255.865 72.5312 254.43 72.9148C253.01 73.2841 251.497 73.419 249.892 73.3196C248.216 73.2202 246.625 72.8295 245.119 72.1477C243.628 71.4659 242.3 70.4787 241.135 69.1861C239.984 67.8935 239.075 66.2955 238.408 64.392C237.754 62.4886 237.42 60.2869 237.406 57.7869C237.42 55.3153 237.768 53.1634 238.45 51.331C239.146 49.4986 240.063 47.9574 241.199 46.7074C242.349 45.4574 243.628 44.4773 245.034 43.767C246.44 43.0568 247.854 42.6023 249.274 42.4034C250.879 42.1619 252.399 42.1619 253.834 42.4034C255.268 42.6449 256.476 43.0355 257.456 43.5753C258.45 44.1151 259.068 44.6974 259.31 45.3224H259.608V42.9361H266.277V63.7315C266.291 64.7116 266.511 65.4716 266.938 66.0114C267.364 66.5511 267.939 66.821 268.663 66.821C269.643 66.821 270.46 66.3878 271.114 65.5213C271.781 64.6548 272.278 63.3267 272.605 61.5369C272.946 59.7472 273.116 57.4673 273.116 54.6974C273.116 52.027 272.761 49.6832 272.051 47.6662C271.355 45.6349 270.375 43.9091 269.111 42.4886C267.861 41.054 266.405 39.8892 264.743 38.9943C263.081 38.0994 261.277 37.446 259.331 37.0341C257.399 36.6222 255.411 36.4162 253.365 36.4162C249.828 36.4162 246.739 36.956 244.097 38.0355C241.455 39.1009 239.253 40.5994 237.491 42.5312C235.73 44.4631 234.409 46.7287 233.528 49.3281C232.662 51.9134 232.222 54.733 232.207 57.7869C232.222 61.1534 232.69 64.1364 233.614 66.7358C234.551 69.321 235.929 71.4943 237.747 73.2557C239.565 75.017 241.81 76.3523 244.48 77.2614C247.151 78.1705 250.219 78.625 253.685 78.625C255.318 78.625 256.916 78.5043 258.479 78.2628C260.041 78.0355 261.455 77.7514 262.719 77.4105C263.983 77.0838 264.999 76.7642 265.766 76.4517L267.875 82.6307C266.98 83.142 265.766 83.6179 264.232 84.0582C262.712 84.5128 260.993 84.875 259.075 85.1449C257.172 85.429 255.212 85.571 253.195 85.571ZM252.214 66.3097C253.947 66.3097 255.325 65.9759 256.348 65.3082C257.385 64.6406 258.124 63.6534 258.564 62.3466C259.018 61.0256 259.232 59.3991 259.203 57.4673C259.189 55.7628 258.969 54.321 258.543 53.142C258.131 51.9489 257.413 51.0469 256.391 50.4361C255.382 49.8111 253.976 49.4986 252.172 49.4986C250.595 49.4986 249.253 49.8324 248.145 50.5C247.051 51.1676 246.213 52.1051 245.631 53.3125C245.063 54.5057 244.771 55.9119 244.757 57.5312C244.771 59.0369 245.013 60.4645 245.482 61.8139C245.95 63.1491 246.724 64.2358 247.804 65.0739C248.884 65.8977 250.354 66.3097 252.214 66.3097Z" fill="#9013DD"/>
<circle cx="314" cy="346" r="120" fill="#EEEEEE"/>
<mask id="path-4-outside-1_62_120" maskUnits="userSpaceOnUse" x="232" y="272.004" width="164" height="144" fill="black">
<rect fill="white" x="232" y="272.004" width="164" height="144"/>
<path d="M364.688 319.375C363 318.812 361.312 318.281 359.625 317.781C359.906 316.625 360.156 315.469 360.406 314.312C364.25 295.687 361.719 280.719 353.188 275.781C344.969 271.062 331.562 275.969 318 287.781C316.656 288.937 315.344 290.156 314.094 291.375C313.25 290.562 312.375 289.75 311.5 288.969C297.281 276.344 283.031 271.031 274.5 276C266.312 280.75 263.875 294.844 267.312 312.469C267.656 314.219 268.031 315.937 268.469 317.687C266.469 318.25 264.5 318.875 262.656 319.531C245.969 325.312 234 334.437 234 343.875C234 353.625 246.75 363.406 264.094 369.344C265.5 369.812 266.906 370.281 268.344 370.687C267.875 372.562 267.469 374.406 267.094 376.312C263.812 393.656 266.375 407.406 274.562 412.125C283 417 297.187 412 311 399.906C312.094 398.937 313.188 397.937 314.281 396.875C315.656 398.219 317.094 399.5 318.531 400.75C331.906 412.25 345.125 416.906 353.281 412.187C361.719 407.312 364.469 392.531 360.906 374.531C360.625 373.156 360.312 371.75 359.969 370.312C360.969 370.031 361.938 369.719 362.906 369.406C380.938 363.437 394 353.781 394 343.875C394 334.406 381.688 325.219 364.688 319.375ZM322.406 292.844C334.031 282.719 344.875 278.75 349.812 281.594C355.094 284.625 357.125 296.875 353.812 312.969C353.594 314.031 353.375 315.062 353.094 316.094C346.156 314.531 339.125 313.406 332.062 312.781C328 306.969 323.562 301.406 318.75 296.187C319.969 295.031 321.156 293.937 322.406 292.844ZM286.25 360.094C287.844 362.812 289.469 365.531 291.188 368.187C286.312 367.656 281.469 366.875 276.688 365.844C278.063 361.344 279.781 356.687 281.781 351.937C283.219 354.687 284.688 357.406 286.25 360.094ZM276.781 322.5C281.281 321.5 286.062 320.687 291.031 320.062C289.375 322.656 287.75 325.312 286.219 328C284.688 330.656 283.188 333.375 281.781 336.125C279.812 331.469 278.156 326.906 276.781 322.5ZM285.344 344.031C287.406 339.719 289.656 335.5 292.031 331.344C294.406 327.187 296.969 323.156 299.656 319.187C304.344 318.844 309.125 318.656 314 318.656C318.875 318.656 323.688 318.844 328.344 319.187C331 323.125 333.531 327.156 335.938 331.281C338.344 335.406 340.594 339.625 342.719 343.906C340.625 348.219 338.375 352.469 335.969 356.656C333.594 360.812 331.062 364.844 328.406 368.844C323.75 369.187 318.906 369.344 314 369.344C309.094 369.344 304.344 369.187 299.75 368.906C297.031 364.937 294.469 360.875 292.062 356.719C289.656 352.562 287.438 348.344 285.344 344.031ZM341.781 360.031C343.375 357.281 344.875 354.5 346.344 351.687C348.344 356.219 350.094 360.812 351.625 365.531C346.781 366.625 341.875 367.469 336.938 368.031C338.625 365.406 340.219 362.719 341.781 360.031ZM346.281 336.125C344.812 333.375 343.312 330.625 341.75 327.937C340.219 325.281 338.625 322.656 336.969 320.062C342 320.687 346.812 321.531 351.312 322.562C349.875 327.187 348.187 331.687 346.281 336.125ZM314.062 300.969C317.344 304.531 320.438 308.281 323.312 312.156C317.125 311.875 310.906 311.875 304.719 312.156C307.781 308.125 310.938 304.375 314.062 300.969ZM277.812 281.812C283.062 278.75 294.719 283.125 307 294C307.781 294.687 308.562 295.437 309.375 296.187C304.531 301.406 300.062 306.969 295.969 312.781C288.906 313.406 281.906 314.5 274.969 316.031C274.563 314.437 274.219 312.812 273.875 311.187C270.938 296.062 272.875 284.656 277.812 281.812ZM270.156 364.187C268.844 363.812 267.562 363.406 266.281 362.969C259.625 360.875 252.062 357.562 246.594 353.219C243.438 351.031 241.312 347.656 240.719 343.875C240.719 338.156 250.594 330.844 264.844 325.875C266.625 325.25 268.438 324.687 270.25 324.156C272.375 330.937 274.938 337.594 277.906 344.031C274.906 350.562 272.312 357.312 270.156 364.187ZM306.594 394.812C301.438 399.531 295.469 403.281 288.969 405.844C285.5 407.5 281.5 407.656 277.938 406.25C272.969 403.375 270.906 392.344 273.719 377.5C274.062 375.75 274.438 374 274.875 372.281C281.875 373.781 288.938 374.812 296.094 375.344C300.219 381.187 304.75 386.781 309.594 392.031C308.594 393 307.594 393.937 306.594 394.812ZM314.25 387.219C311.062 383.781 307.875 379.969 304.781 375.875C307.781 376 310.875 376.062 314 376.062C317.219 376.062 320.375 376 323.5 375.844C320.625 379.812 317.531 383.594 314.25 387.219ZM355.094 396.594C354.812 400.406 352.938 403.969 349.938 406.375C344.969 409.25 334.375 405.5 322.938 395.687C321.625 394.562 320.312 393.344 318.969 392.094C323.75 386.812 328.156 381.219 332.156 375.344C339.312 374.75 346.438 373.656 353.469 372.062C353.781 373.344 354.062 374.625 354.312 375.875C355.844 382.625 356.094 389.656 355.094 396.594ZM360.781 363C359.906 363.281 359.031 363.562 358.125 363.812C355.938 357 353.25 350.344 350.156 343.875C353.156 337.5 355.688 330.937 357.812 324.219C359.438 324.687 361 325.187 362.5 325.687C377.062 330.687 387.281 338.125 387.281 343.812C387.281 349.937 376.375 357.844 360.781 363ZM314 358.312C321.906 358.312 328.312 351.906 328.312 344C328.312 336.094 321.906 329.687 314 329.687C306.094 329.687 299.688 336.094 299.688 344C299.688 351.906 306.094 358.312 314 358.312Z"/>
</mask>
<path d="M364.688 319.375C363 318.812 361.312 318.281 359.625 317.781C359.906 316.625 360.156 315.469 360.406 314.312C364.25 295.687 361.719 280.719 353.188 275.781C344.969 271.062 331.562 275.969 318 287.781C316.656 288.937 315.344 290.156 314.094 291.375C313.25 290.562 312.375 289.75 311.5 288.969C297.281 276.344 283.031 271.031 274.5 276C266.312 280.75 263.875 294.844 267.312 312.469C267.656 314.219 268.031 315.937 268.469 317.687C266.469 318.25 264.5 318.875 262.656 319.531C245.969 325.312 234 334.437 234 343.875C234 353.625 246.75 363.406 264.094 369.344C265.5 369.812 266.906 370.281 268.344 370.687C267.875 372.562 267.469 374.406 267.094 376.312C263.812 393.656 266.375 407.406 274.562 412.125C283 417 297.187 412 311 399.906C312.094 398.937 313.188 397.937 314.281 396.875C315.656 398.219 317.094 399.5 318.531 400.75C331.906 412.25 345.125 416.906 353.281 412.187C361.719 407.312 364.469 392.531 360.906 374.531C360.625 373.156 360.312 371.75 359.969 370.312C360.969 370.031 361.938 369.719 362.906 369.406C380.938 363.437 394 353.781 394 343.875C394 334.406 381.688 325.219 364.688 319.375ZM322.406 292.844C334.031 282.719 344.875 278.75 349.812 281.594C355.094 284.625 357.125 296.875 353.812 312.969C353.594 314.031 353.375 315.062 353.094 316.094C346.156 314.531 339.125 313.406 332.062 312.781C328 306.969 323.562 301.406 318.75 296.187C319.969 295.031 321.156 293.937 322.406 292.844ZM286.25 360.094C287.844 362.812 289.469 365.531 291.188 368.187C286.312 367.656 281.469 366.875 276.688 365.844C278.063 361.344 279.781 356.687 281.781 351.937C283.219 354.687 284.688 357.406 286.25 360.094ZM276.781 322.5C281.281 321.5 286.062 320.687 291.031 320.062C289.375 322.656 287.75 325.312 286.219 328C284.688 330.656 283.188 333.375 281.781 336.125C279.812 331.469 278.156 326.906 276.781 322.5ZM285.344 344.031C287.406 339.719 289.656 335.5 292.031 331.344C294.406 327.187 296.969 323.156 299.656 319.187C304.344 318.844 309.125 318.656 314 318.656C318.875 318.656 323.688 318.844 328.344 319.187C331 323.125 333.531 327.156 335.938 331.281C338.344 335.406 340.594 339.625 342.719 343.906C340.625 348.219 338.375 352.469 335.969 356.656C333.594 360.812 331.062 364.844 328.406 368.844C323.75 369.187 318.906 369.344 314 369.344C309.094 369.344 304.344 369.187 299.75 368.906C297.031 364.937 294.469 360.875 292.062 356.719C289.656 352.562 287.438 348.344 285.344 344.031ZM341.781 360.031C343.375 357.281 344.875 354.5 346.344 351.687C348.344 356.219 350.094 360.812 351.625 365.531C346.781 366.625 341.875 367.469 336.938 368.031C338.625 365.406 340.219 362.719 341.781 360.031ZM346.281 336.125C344.812 333.375 343.312 330.625 341.75 327.937C340.219 325.281 338.625 322.656 336.969 320.062C342 320.687 346.812 321.531 351.312 322.562C349.875 327.187 348.187 331.687 346.281 336.125ZM314.062 300.969C317.344 304.531 320.438 308.281 323.312 312.156C317.125 311.875 310.906 311.875 304.719 312.156C307.781 308.125 310.938 304.375 314.062 300.969ZM277.812 281.812C283.062 278.75 294.719 283.125 307 294C307.781 294.687 308.562 295.437 309.375 296.187C304.531 301.406 300.062 306.969 295.969 312.781C288.906 313.406 281.906 314.5 274.969 316.031C274.563 314.437 274.219 312.812 273.875 311.187C270.938 296.062 272.875 284.656 277.812 281.812ZM270.156 364.187C268.844 363.812 267.562 363.406 266.281 362.969C259.625 360.875 252.062 357.562 246.594 353.219C243.438 351.031 241.312 347.656 240.719 343.875C240.719 338.156 250.594 330.844 264.844 325.875C266.625 325.25 268.438 324.687 270.25 324.156C272.375 330.937 274.938 337.594 277.906 344.031C274.906 350.562 272.312 357.312 270.156 364.187ZM306.594 394.812C301.438 399.531 295.469 403.281 288.969 405.844C285.5 407.5 281.5 407.656 277.938 406.25C272.969 403.375 270.906 392.344 273.719 377.5C274.062 375.75 274.438 374 274.875 372.281C281.875 373.781 288.938 374.812 296.094 375.344C300.219 381.187 304.75 386.781 309.594 392.031C308.594 393 307.594 393.937 306.594 394.812ZM314.25 387.219C311.062 383.781 307.875 379.969 304.781 375.875C307.781 376 310.875 376.062 314 376.062C317.219 376.062 320.375 376 323.5 375.844C320.625 379.812 317.531 383.594 314.25 387.219ZM355.094 396.594C354.812 400.406 352.938 403.969 349.938 406.375C344.969 409.25 334.375 405.5 322.938 395.687C321.625 394.562 320.312 393.344 318.969 392.094C323.75 386.812 328.156 381.219 332.156 375.344C339.312 374.75 346.438 373.656 353.469 372.062C353.781 373.344 354.062 374.625 354.312 375.875C355.844 382.625 356.094 389.656 355.094 396.594ZM360.781 363C359.906 363.281 359.031 363.562 358.125 363.812C355.938 357 353.25 350.344 350.156 343.875C353.156 337.5 355.688 330.937 357.812 324.219C359.438 324.687 361 325.187 362.5 325.687C377.062 330.687 387.281 338.125 387.281 343.812C387.281 349.937 376.375 357.844 360.781 363ZM314 358.312C321.906 358.312 328.312 351.906 328.312 344C328.312 336.094 321.906 329.687 314 329.687C306.094 329.687 299.688 336.094 299.688 344C299.688 351.906 306.094 358.312 314 358.312Z" fill="#9013DD"/>
<path d="M364.688 319.375C363 318.812 361.312 318.281 359.625 317.781C359.906 316.625 360.156 315.469 360.406 314.312C364.25 295.687 361.719 280.719 353.188 275.781C344.969 271.062 331.562 275.969 318 287.781C316.656 288.937 315.344 290.156 314.094 291.375C313.25 290.562 312.375 289.75 311.5 288.969C297.281 276.344 283.031 271.031 274.5 276C266.312 280.75 263.875 294.844 267.312 312.469C267.656 314.219 268.031 315.937 268.469 317.687C266.469 318.25 264.5 318.875 262.656 319.531C245.969 325.312 234 334.437 234 343.875C234 353.625 246.75 363.406 264.094 369.344C265.5 369.812 266.906 370.281 268.344 370.687C267.875 372.562 267.469 374.406 267.094 376.312C263.812 393.656 266.375 407.406 274.562 412.125C283 417 297.187 412 311 399.906C312.094 398.937 313.188 397.937 314.281 396.875C315.656 398.219 317.094 399.5 318.531 400.75C331.906 412.25 345.125 416.906 353.281 412.187C361.719 407.312 364.469 392.531 360.906 374.531C360.625 373.156 360.312 371.75 359.969 370.312C360.969 370.031 361.938 369.719 362.906 369.406C380.938 363.437 394 353.781 394 343.875C394 334.406 381.688 325.219 364.688 319.375ZM322.406 292.844C334.031 282.719 344.875 278.75 349.812 281.594C355.094 284.625 357.125 296.875 353.812 312.969C353.594 314.031 353.375 315.062 353.094 316.094C346.156 314.531 339.125 313.406 332.062 312.781C328 306.969 323.562 301.406 318.75 296.187C319.969 295.031 321.156 293.937 322.406 292.844ZM286.25 360.094C287.844 362.812 289.469 365.531 291.188 368.187C286.312 367.656 281.469 366.875 276.688 365.844C278.063 361.344 279.781 356.687 281.781 351.937C283.219 354.687 284.688 357.406 286.25 360.094ZM276.781 322.5C281.281 321.5 286.062 320.687 291.031 320.062C289.375 322.656 287.75 325.312 286.219 328C284.688 330.656 283.188 333.375 281.781 336.125C279.812 331.469 278.156 326.906 276.781 322.5ZM285.344 344.031C287.406 339.719 289.656 335.5 292.031 331.344C294.406 327.187 296.969 323.156 299.656 319.187C304.344 318.844 309.125 318.656 314 318.656C318.875 318.656 323.688 318.844 328.344 319.187C331 323.125 333.531 327.156 335.938 331.281C338.344 335.406 340.594 339.625 342.719 343.906C340.625 348.219 338.375 352.469 335.969 356.656C333.594 360.812 331.062 364.844 328.406 368.844C323.75 369.187 318.906 369.344 314 369.344C309.094 369.344 304.344 369.187 299.75 368.906C297.031 364.937 294.469 360.875 292.062 356.719C289.656 352.562 287.438 348.344 285.344 344.031ZM341.781 360.031C343.375 357.281 344.875 354.5 346.344 351.687C348.344 356.219 350.094 360.812 351.625 365.531C346.781 366.625 341.875 367.469 336.938 368.031C338.625 365.406 340.219 362.719 341.781 360.031ZM346.281 336.125C344.812 333.375 343.312 330.625 341.75 327.937C340.219 325.281 338.625 322.656 336.969 320.062C342 320.687 346.812 321.531 351.312 322.562C349.875 327.187 348.187 331.687 346.281 336.125ZM314.062 300.969C317.344 304.531 320.438 308.281 323.312 312.156C317.125 311.875 310.906 311.875 304.719 312.156C307.781 308.125 310.938 304.375 314.062 300.969ZM277.812 281.812C283.062 278.75 294.719 283.125 307 294C307.781 294.687 308.562 295.437 309.375 296.187C304.531 301.406 300.062 306.969 295.969 312.781C288.906 313.406 281.906 314.5 274.969 316.031C274.563 314.437 274.219 312.812 273.875 311.187C270.938 296.062 272.875 284.656 277.812 281.812ZM270.156 364.187C268.844 363.812 267.562 363.406 266.281 362.969C259.625 360.875 252.062 357.562 246.594 353.219C243.438 351.031 241.312 347.656 240.719 343.875C240.719 338.156 250.594 330.844 264.844 325.875C266.625 325.25 268.438 324.687 270.25 324.156C272.375 330.937 274.938 337.594 277.906 344.031C274.906 350.562 272.312 357.312 270.156 364.187ZM306.594 394.812C301.438 399.531 295.469 403.281 288.969 405.844C285.5 407.5 281.5 407.656 277.938 406.25C272.969 403.375 270.906 392.344 273.719 377.5C274.062 375.75 274.438 374 274.875 372.281C281.875 373.781 288.938 374.812 296.094 375.344C300.219 381.187 304.75 386.781 309.594 392.031C308.594 393 307.594 393.937 306.594 394.812ZM314.25 387.219C311.062 383.781 307.875 379.969 304.781 375.875C307.781 376 310.875 376.062 314 376.062C317.219 376.062 320.375 376 323.5 375.844C320.625 379.812 317.531 383.594 314.25 387.219ZM355.094 396.594C354.812 400.406 352.938 403.969 349.938 406.375C344.969 409.25 334.375 405.5 322.938 395.687C321.625 394.562 320.312 393.344 318.969 392.094C323.75 386.812 328.156 381.219 332.156 375.344C339.312 374.75 346.438 373.656 353.469 372.062C353.781 373.344 354.062 374.625 354.312 375.875C355.844 382.625 356.094 389.656 355.094 396.594ZM360.781 363C359.906 363.281 359.031 363.562 358.125 363.812C355.938 357 353.25 350.344 350.156 343.875C353.156 337.5 355.688 330.937 357.812 324.219C359.438 324.687 361 325.187 362.5 325.687C377.062 330.687 387.281 338.125 387.281 343.812C387.281 349.937 376.375 357.844 360.781 363ZM314 358.312C321.906 358.312 328.312 351.906 328.312 344C328.312 336.094 321.906 329.687 314 329.687C306.094 329.687 299.688 336.094 299.688 344C299.688 351.906 306.094 358.312 314 358.312Z" stroke="#9013DD" stroke-width="2.8" mask="url(#path-4-outside-1_62_120)"/>
<circle cx="100" cy="198" r="100" fill="#EEEEEE"/>
<path d="M72.3594 209.281V161.75H85.25V209.281C85.25 213.812 84.2656 217.703 82.2969 220.953C80.3281 224.172 77.6406 226.641 74.2344 228.359C70.8281 230.078 66.9844 230.938 62.7031 230.938C58.2969 230.938 54.3906 230.203 50.9844 228.734C47.5781 227.234 44.9062 224.953 42.9688 221.891C41.0625 218.828 40.1094 214.938 40.1094 210.219H53.0469C53.0469 212.781 53.4375 214.844 54.2188 216.406C55 217.969 56.1094 219.094 57.5469 219.781C59.0156 220.469 60.7344 220.812 62.7031 220.812C64.6094 220.812 66.2812 220.375 67.7188 219.5C69.1875 218.594 70.3281 217.281 71.1406 215.562C71.9531 213.844 72.3594 211.75 72.3594 209.281ZM133.766 212.281C133.766 210.969 133.562 209.797 133.156 208.766C132.781 207.703 132.078 206.75 131.047 205.906C130.047 205.031 128.625 204.188 126.781 203.375C124.969 202.531 122.625 201.656 119.75 200.75C116.562 199.75 113.594 198.625 110.844 197.375C108.094 196.125 105.672 194.672 103.578 193.016C101.516 191.359 99.9062 189.453 98.75 187.297C97.5938 185.109 97.0156 182.578 97.0156 179.703C97.0156 176.891 97.6094 174.328 98.7969 172.016C100.016 169.703 101.734 167.719 103.953 166.062C106.172 164.375 108.781 163.078 111.781 162.172C114.812 161.266 118.156 160.812 121.812 160.812C126.875 160.812 131.25 161.734 134.938 163.578C138.656 165.422 141.531 167.922 143.562 171.078C145.594 174.234 146.609 177.781 146.609 181.719H133.766C133.766 179.594 133.312 177.719 132.406 176.094C131.531 174.469 130.188 173.188 128.375 172.25C126.594 171.312 124.344 170.844 121.625 170.844C119 170.844 116.812 171.234 115.062 172.016C113.344 172.797 112.047 173.859 111.172 175.203C110.328 176.547 109.906 178.047 109.906 179.703C109.906 180.953 110.203 182.078 110.797 183.078C111.391 184.047 112.281 184.969 113.469 185.844C114.656 186.688 116.125 187.484 117.875 188.234C119.656 188.953 121.719 189.672 124.062 190.391C127.812 191.516 131.094 192.766 133.906 194.141C136.75 195.516 139.109 197.078 140.984 198.828C142.891 200.578 144.312 202.547 145.25 204.734C146.219 206.922 146.703 209.406 146.703 212.188C146.703 215.125 146.125 217.75 144.969 220.062C143.812 222.375 142.156 224.344 140 225.969C137.844 227.594 135.25 228.828 132.219 229.672C129.219 230.516 125.859 230.938 122.141 230.938C118.828 230.938 115.547 230.5 112.297 229.625C109.078 228.719 106.156 227.375 103.531 225.594C100.906 223.781 98.8125 221.5 97.25 218.75C95.6875 215.969 94.9062 212.719 94.9062 209H107.844C107.844 211.156 108.188 213 108.875 214.531C109.594 216.031 110.594 217.266 111.875 218.234C113.188 219.172 114.719 219.859 116.469 220.297C118.219 220.734 120.109 220.953 122.141 220.953C124.766 220.953 126.922 220.594 128.609 219.875C130.328 219.125 131.609 218.094 132.453 216.781C133.328 215.469 133.766 213.969 133.766 212.281Z" fill="#9013DD"/>
</svg>
