<svg width="435" height="478" viewBox="0 0 435 478" fill="none" xmlns="http://www.w3.org/2000/svg">
<circle cx="101" cy="101" r="101" fill="#EEEEEE"/>
<path d="M46 40L58.2222 149.8L100.952 162L143.778 149.8L156 40H46ZM129.885 90.9207L127.545 128.998L101.167 137.6L74.7891 128.998L73.7865 110.793H87.1545L87.4887 119.062L101.167 123.708L114.869 119.062L115.872 104.169H86.4861L85.8177 90.9207H116.517L117.519 77.6723H71.4471L70.4444 64.4477H131.556L129.885 90.9207Z" fill="#9013DD"/>
<circle cx="314" cy="263" r="121" fill="#EEEEEE"/>
<path d="M380.75 194.833H247.25L262.083 328.333L314 343.167L365.917 328.333L380.75 194.833ZM349.78 239.942H292.996L294.357 256.108H348.418L344.362 303.853L314 313.529L313.71 313.413L283.696 303.853L282.045 284.384H296.762L297.399 291.945L314.174 295.654L330.63 291.945L332.397 271.52H280.944L276.975 224.5H351.112L349.78 239.942Z" fill="#9013DD"/>
<circle cx="161" cy="422" r="56" fill="#EEEEEE"/>
<path d="M186.375 401.286V406.464C186.375 411.028 175.009 414.75 161 414.75C146.991 414.75 135.625 411.028 135.625 406.464V401.286C135.625 396.722 146.991 393 161 393C175.009 393 186.375 396.722 186.375 401.286ZM186.375 412.938V424.589C186.375 429.153 175.009 432.875 161 432.875C146.991 432.875 135.625 429.153 135.625 424.589V412.938C141.077 416.692 151.055 418.44 161 418.44C170.945 418.44 180.923 416.692 186.375 412.938ZM186.375 431.062V442.714C186.375 447.278 175.009 451 161 451C146.991 451 135.625 447.278 135.625 442.714V431.062C141.077 434.817 151.055 436.565 161 436.565C170.945 436.565 180.923 434.817 186.375 431.062Z" fill="#9013DD"/>
</svg>
